<svg xmlns="http://www.w3.org/2000/svg" version="1.1" preserveAspectRatio="xMidYMid meet" viewBox="283.61 9.31 77.24 77.69">
    <g transform="translate(-10.988566,109.000201) scale(0.100000,-0.100000)" fill="#333333" stroke="none">
        <path d="M3218 981 c-77 -25 -118 -52 -177 -116 -69 -76 -95 -146 -95 -255 0 -121 27 -185 113 -271 50 -50 81 -71 126 -88 72 -27 138 -36 199 -27 40 6 46 10 46 31 0 32 -15 39 -42 21 -12 -9 -26 -16 -30 -16 -5 0 -8 32 -8 70 0 65 2 70 21 70 15 0 19 4 15 16 -3 9 -6 18 -6 20 0 2 -7 4 -15 4 -12 0 -15 15 -15 73 l0 73 63 -2 c113 -3 107 -1 107 -33 0 -16 6 -31 15 -35 11 -4 16 4 21 32 l6 37 59 -3 c66 -4 69 -8 44 -77 -19 -52 -19 -55 4 -55 15 0 23 14 36 65 22 78 17 155 -16 240 -31 84 -130 183 -214 215 -82 31 -183 36 -257 11z m92 -91 l0 -70 -49 0 c-74 0 -84 6 -66 39 15 30 89 101 105 101 6 0 10 -30 10 -70z m84 51 c33 -22 88 -99 80 -112 -3 -5 -32 -9 -65 -9 l-59 0 0 70 c0 39 3 70 8 70 4 0 20 -9 36 -19z m-217 -45 c-12 -18 -26 -40 -32 -49 -7 -11 -20 -14 -43 -10 -28 5 -31 8 -20 21 20 24 89 72 104 72 9 0 7 -10 -9 -34z m349 6 c21 -16 45 -36 52 -44 11 -13 8 -16 -20 -21 -23 -4 -36 -1 -43 10 -5 9 -20 31 -32 49 -28 43 -11 45 43 6z m-400 -106 c1 0 -4 -30 -12 -66 -7 -36 -14 -75 -14 -87 0 -21 -5 -23 -60 -23 -57 0 -60 1 -60 25 0 30 27 112 47 143 13 21 19 23 56 17 23 -4 43 -8 43 -9z m522 -38 c12 -27 25 -68 29 -93 l6 -45 -60 0 -59 0 -12 73 c-6 40 -14 80 -17 89 -5 12 1 18 22 21 57 9 67 4 91 -45z m-384 26 l46 -7 0 -78 0 -79 -86 0 -87 0 6 59 c12 113 19 119 121 105z m245 -51 c6 -31 11 -69 11 -85 l0 -28 -85 0 -85 0 0 79 0 80 33 4 c17 2 51 5 73 5 l41 2 12 -57z m-398 -228 c9 -44 16 -81 15 -82 -1 -1 -22 -3 -46 -5 -44 -3 -45 -2 -67 42 -11 25 -24 62 -28 82 l-7 37 48 3 c27 2 53 3 59 3 5 0 17 -36 26 -80z m199 11 l0 -74 -64 -7 c-36 -4 -69 -4 -74 -1 -11 6 -32 92 -32 126 0 17 9 20 78 23 42 1 80 4 85 5 4 1 7 -31 7 -72z m0 -186 c0 -38 -4 -70 -9 -70 -27 0 -127 113 -115 131 3 5 32 9 65 9 l59 0 0 -70z m-154 28 c9 -18 23 -41 32 -50 13 -15 13 -18 1 -18 -17 0 -53 23 -92 59 l-28 26 28 6 c15 4 31 7 35 8 4 0 15 -14 24 -31z"/>
        <path d="M3390 541 c0 -10 81 -295 85 -299 2 -2 13 14 25 37 11 23 24 41 29 41 5 0 26 -22 47 -50 21 -27 41 -50 45 -50 3 0 14 9 24 20 17 19 17 21 -11 56 -60 76 -59 71 -17 84 21 7 41 15 45 19 6 5 -252 151 -267 151 -3 0 -5 -4 -5 -9z"/>
    </g>
</svg>