<?xml version="1.0" encoding="UTF-8" standalone="no"?>
<!-- Created with Inkscape (http://www.inkscape.org/) -->

<svg
   width="300"
   height="64"
   viewBox="0 0 79.374999 16.933344"
   version="1.1"
   id="svg5"
   inkscape:version="1.1 (c68e22c387, 2021-05-23)"
   sodipodi:docname="logo.svg"
   xmlns:inkscape="http://www.inkscape.org/namespaces/inkscape"
   xmlns:sodipodi="http://sodipodi.sourceforge.net/DTD/sodipodi-0.dtd"
   xmlns="http://www.w3.org/2000/svg"
   xmlns:svg="http://www.w3.org/2000/svg">
  <sodipodi:namedview
     id="namedview7"
     pagecolor="#ffffff"
     bordercolor="#666666"
     borderopacity="1.0"
     inkscape:pageshadow="2"
     inkscape:pageopacity="0.0"
     inkscape:pagecheckerboard="0"
     inkscape:document-units="mm"
     showgrid="false"
     showguides="false"
     inkscape:zoom="1.050338"
     inkscape:cx="235.63843"
     inkscape:cy="243.25503"
     inkscape:window-width="1366"
     inkscape:window-height="705"
     inkscape:window-x="-8"
     inkscape:window-y="-8"
     inkscape:window-maximized="1"
     inkscape:current-layer="layer1"
     width="209mm"
     units="px" />
  <defs
     id="defs2">
    <rect
       x="133.83888"
       y="513.76862"
       width="317.32767"
       height="64.76075"
       id="rect1023" />
       <linearGradient id="Gradient1">
        <stop class="stop1" offset="0%" stop-color="#4e30e6"/>
        <stop class="stop2" offset="100%" stop-color="#2ed0dc"/>
      </linearGradient>
  </defs>
  <g
     inkscape:label="Layer 1"
     inkscape:groupmode="layer"
     id="layer1">
    <text
       xml:space="preserve"
       transform="scale(0.26458333)"
       id="text1021"
       style="font-style:normal;font-weight:normal;font-size:40px;line-height:1.25;font-family:sans-serif;white-space:pre;shape-inside:url(#rect1023);fill:#ffffff;fill-opacity:1;stroke:none" />
    <g
       aria-label="Expreessi"
       id="text1381"
       style="font-size:28.2222px;stroke-width:0.264583"
       transform="matrix(0.71746441,0,0,0.63255471,-40.303663,-76.587493)">
      <path
         style="color:#ffffff;-inkscape-font-specification:'Magic Dreams';-inkscape-stroke:none"
         d="m 63.133423,144.4737 q -3.753552,0 -5.13644,-0.508 -0.366889,-0.22578 -0.366889,-1.60866 0,-2.14489 0.733778,-6.57578 0.874888,-5.16466 1.890887,-9.90599 l 0.112889,-0.47978 q 0.197555,-0.79022 3.838219,-0.84666 h 1.523999 q 3.273775,0 4.374441,0.254 0.423333,0.14111 0.423333,1.58044 0,0.84667 -0.225778,1.43933 -0.197555,0.56445 -0.592666,0.64911 -0.705555,0.0847 -1.467554,0.0847 -1.213555,0 -2.963331,-0.19756 l -0.423333,-0.0282 q -0.254,0 -1.241777,5.16466 l 3.330219,-0.0282 q 0.733778,0.0847 0.987777,0.762 0.254,0.67733 0.254,1.15711 0,1.72156 -1.382888,1.80622 H 62.96409 q -0.225777,1.43933 -0.225777,2.31422 0,0.33867 0.08467,0.42334 0.197556,0.11288 0.762,0.11288 0.987777,0 3.047997,-0.28222 1.636888,-0.19755 1.947332,-0.19755 0.536222,0.14111 0.536222,1.524 0,1.18533 -0.451555,2.31422 -0.451556,0.73377 -2.285999,0.90311 -1.80622,0.16933 -3.245553,0.16933 z"
         id="path6767"
         fill="url(#Gradient1)" />
      <path
         style="color:#ffffff;-inkscape-font-specification:'Magic Dreams';fill:#ffffff;-inkscape-stroke:none"
         d="m 79.643355,144.64303 q -0.790222,0 -0.959555,-0.39511 -0.451555,-1.27 -2.060221,-4.9671 -2.144887,3.66888 -2.793997,4.91066 -0.225778,0.39511 -1.016,0.39511 -0.536221,0 -1.241777,-0.16933 -0.677332,-0.19756 -1.15711,-0.47978 -0.507999,-0.31045 -0.507999,-0.62089 0,-0.45156 4.741329,-8.57955 -3.47133,-8.09977 -3.47133,-9.11577 v -0.0847 q 0.169333,-0.33866 1.044221,-0.62088 1.044222,-0.33867 1.862665,-0.33867 0.818444,0 1.016,0.36689 v 0.0282 l 2.257776,5.13644 3.047997,-5.19288 q 0.282222,-0.33867 0.959555,-0.33867 0.90311,0 1.834443,0.36689 0.959555,0.36689 0.959555,0.70555 0,0.84667 -4.825996,9.05933 3.386664,8.09977 3.443108,8.66421 0,0.31045 -0.564444,0.62089 -0.564444,0.28223 -1.298221,0.47978 -0.705555,0.16933 -1.269999,0.16933 z"
         id="path6769" />
      <path
         style="color:#ffffff;-inkscape-font-specification:'Magic Dreams';fill:#ffffff;-inkscape-stroke:none"
         d="m 89.097761,135.86593 q 1.185332,0 2.06022,-0.95956 1.66511,-1.74977 1.66511,-4.14866 0,-1.15711 -0.564444,-1.80622 -0.790222,-0.87489 -2.173109,-0.87489 l -0.536222,0.0282 q -0.395111,3.33022 -1.044222,7.70466 0.310445,0.0564 0.592667,0.0564 z m -3.358442,8.74888 q -1.016,0 -1.890888,-0.31044 -0.733777,-0.22578 -0.733777,-0.70556 0,-1.27 1.044221,-8.60777 0.451556,-3.27377 0.874889,-6.03955 0.423333,-2.794 0.564444,-3.78177 0.169333,-0.42334 1.382888,-0.56445 1.241776,-0.16933 1.890887,-0.16933 4.459108,0 6.603995,2.42711 1.382888,1.58044 1.382888,4.09222 0,4.12044 -2.906887,6.57577 -2.31422,1.94733 -4.995329,1.94733 -0.479778,0 -0.959555,-0.0564 -0.508,3.33022 -0.592666,4.57199 -0.08467,0.62089 -1.66511,0.62089 z"
         id="path6771" />
      <path
         style="color:#ffffff;-inkscape-font-specification:'Magic Dreams';fill:#ffffff;-inkscape-stroke:none"
         d="m 102.58792,135.86593 q 1.18533,0 2.06022,-0.95956 1.69333,-1.77799 1.69333,-4.14866 0,-1.15711 -0.59266,-1.80622 -0.762,-0.87489 -2.14489,-0.87489 l -0.56444,0.0282 q -0.36689,3.33022 -1.016,7.70466 0.28222,0.0564 0.56444,0.0564 z m -3.330218,8.74888 q -1.044222,0 -1.862665,-0.254 -0.790222,-0.28222 -0.790222,-0.64911 0,-1.63689 1.947332,-14.78843 l 0.536222,-3.75355 q 0.169333,-0.42334 1.382891,-0.56445 1.24177,-0.16933 1.91911,-0.16933 4.4591,0 6.57577,2.45533 1.41111,1.58044 1.41111,4.12044 0,0.64911 -0.0847,1.38289 -0.73378,4.064 -4.26155,6.15244 3.33022,2.87866 3.33022,3.92288 l -0.0282,0.16934 q -0.31045,0.90311 -1.016,1.41111 -0.67733,0.47977 -1.24178,0.47977 -1.38289,0 -5.58799,-5.10821 -0.508,3.35844 -0.59267,4.57199 -0.0564,0.62089 -1.636888,0.62089 z"
         id="path6773" />
      <path
         style="color:#ffffff;-inkscape-font-specification:'Magic Dreams';fill:#ffffff;-inkscape-stroke:none"
         d="m 115.88054,144.4737 q -3.75355,0 -5.13644,-0.508 -0.36689,-0.22578 -0.36689,-1.60866 0,-2.14489 0.73378,-6.57578 0.87489,-5.16466 1.89089,-9.90599 l 0.11288,-0.47978 q 0.19756,-0.79022 3.83822,-0.84666 h 1.524 q 3.27378,0 4.37444,0.254 0.42334,0.14111 0.42334,1.58044 0,0.84667 -0.22578,1.43933 -0.19756,0.56445 -0.59267,0.64911 -0.70555,0.0847 -1.46755,0.0847 -1.21356,0 -2.96333,-0.19756 l -0.42334,-0.0282 q -0.254,0 -1.24177,5.16466 l 3.33022,-0.0282 q 0.73377,0.0847 0.98777,0.762 0.254,0.67733 0.254,1.15711 0,1.72156 -1.38288,1.80622 h -3.83822 q -0.22578,1.43933 -0.22578,2.31422 0,0.33867 0.0847,0.42334 0.19755,0.11288 0.76199,0.11288 0.98778,0 3.048,-0.28222 1.63689,-0.19755 1.94733,-0.19755 0.53623,0.14111 0.53623,1.524 0,1.18533 -0.45156,2.31422 -0.45155,0.73377 -2.286,0.90311 -1.80622,0.16933 -3.24555,0.16933 z"
         id="path6775" />
      <path
         style="color:#ffffff;-inkscape-font-specification:'Magic Dreams';fill:#ffffff;-inkscape-stroke:none"
         d="m 128.07251,144.4737 q -3.75355,0 -5.13644,-0.508 -0.36689,-0.22578 -0.36689,-1.60866 0,-2.14489 0.73378,-6.57578 0.87489,-5.16466 1.89089,-9.90599 l 0.11288,-0.47978 q 0.19756,-0.79022 3.83822,-0.84666 h 1.524 q 3.27378,0 4.37444,0.254 0.42334,0.14111 0.42334,1.58044 0,0.84667 -0.22578,1.43933 -0.19756,0.56445 -0.59267,0.64911 -0.70555,0.0847 -1.46755,0.0847 -1.21356,0 -2.96333,-0.19756 l -0.42334,-0.0282 q -0.254,0 -1.24177,5.16466 l 3.33022,-0.0282 q 0.73377,0.0847 0.98777,0.762 0.254,0.67733 0.254,1.15711 0,1.72156 -1.38288,1.80622 h -3.83822 q -0.22578,1.43933 -0.22578,2.31422 0,0.33867 0.0847,0.42334 0.19755,0.11288 0.762,0.11288 0.98777,0 3.04799,-0.28222 1.63689,-0.19755 1.94733,-0.19755 0.53623,0.14111 0.53623,1.524 0,1.18533 -0.45156,2.31422 -0.45155,0.73377 -2.286,0.90311 -1.80622,0.16933 -3.24555,0.16933 z"
         id="path6777" />
      <path
         style="color:#ffffff;-inkscape-font-specification:'Magic Dreams';fill:#ffffff;-inkscape-stroke:none"
         d="m 140.91358,144.58659 q -3.07622,-0.14111 -4.51555,-1.43933 -1.72155,-1.524 -1.72155,-3.47133 0,-0.87489 0.42333,-1.29822 0.42333,-0.45156 1.29822,-0.45156 0.98778,0 1.80622,0.33867 0.84667,0.31044 0.84667,0.67733 l -0.0282,0.16933 q -0.0564,0.254 -0.0564,0.56445 0,0.31044 0.16934,0.64911 0.73377,1.04422 1.69333,1.04422 1.66511,0 1.66511,-1.89089 0,-0.79022 -0.87489,-1.38289 -0.762,-0.47977 -1.89089,-0.95955 -1.10066,-0.47978 -2.17311,-1.18533 -2.20133,-1.38289 -2.20133,-3.95111 0,-1.41111 0.67733,-3.18911 1.04422,-2.62467 2.54,-3.556 1.10067,-0.67733 2.65289,-0.67733 0.56444,0 1.18533,0.0847 3.78178,0.67733 3.78178,4.51555 0,2.34244 -1.21356,3.01977 -0.56444,0.254 -1.016,0.254 -0.81844,0 -1.46755,-0.508 l -0.508,-0.508 q -0.16934,-0.254 -0.16934,-0.53622 0,-0.47978 0.47978,-1.41111 0.45156,-0.79022 0.45156,-1.27 0,-0.42333 -0.59267,-0.62089 h -0.14111 q -0.508,0 -1.04422,0.81845 -0.508,0.79022 -0.87489,2.06022 -0.19756,0.70555 -0.19756,1.27 0,1.72155 2.76578,2.96333 1.49578,0.62089 2.59644,1.74978 0.84667,0.87488 0.84667,2.51177 0,2.65289 -1.72156,4.28978 -1.32644,1.29822 -3.47133,1.32644 z"
         id="path6779" />
      <path
         style="color:#ffffff;-inkscape-font-specification:'Magic Dreams';fill:#ffffff;-inkscape-stroke:none"
         d="m 152.82333,144.58659 q -3.07622,-0.14111 -4.51555,-1.43933 -1.72156,-1.524 -1.72156,-3.47133 0,-0.87489 0.42334,-1.29822 0.42333,-0.45156 1.29822,-0.45156 0.98777,0 1.80622,0.33867 0.84666,0.31044 0.84666,0.67733 l -0.0282,0.16933 q -0.0564,0.254 -0.0564,0.56445 0,0.31044 0.16933,0.64911 0.73378,1.04422 1.69333,1.04422 1.66511,0 1.66511,-1.89089 0,-0.79022 -0.87489,-1.38289 -0.762,-0.47977 -1.89088,-0.95955 -1.10067,-0.47978 -2.17311,-1.18533 -2.20134,-1.38289 -2.20134,-3.95111 0,-1.41111 0.67734,-3.18911 1.04422,-2.62467 2.54,-3.556 1.10066,-0.67733 2.65288,-0.67733 0.56445,0 1.18533,0.0847 3.78178,0.67733 3.78178,4.51555 0,2.34244 -1.21355,3.01977 -0.56445,0.254 -1.016,0.254 -0.81845,0 -1.46756,-0.508 l -0.508,-0.508 q -0.16933,-0.254 -0.16933,-0.53622 0,-0.47978 0.47978,-1.41111 0.45155,-0.79022 0.45155,-1.27 0,-0.42333 -0.59266,-0.62089 h -0.14112 q -0.508,0 -1.04422,0.81845 -0.508,0.79022 -0.87489,2.06022 -0.19755,0.70555 -0.19755,1.27 0,1.72155 2.76577,2.96333 1.49578,0.62089 2.59645,1.74978 0.84666,0.87488 0.84666,2.51177 0,2.65289 -1.72155,4.28978 -1.32644,1.29822 -3.47133,1.32644 z"
         id="path6781" />
      <path
         style="color:#ffffff;-inkscape-font-specification:'Magic Dreams';fill:#ffffff;-inkscape-stroke:none"
         d="m 161.26173,144.53014 q -1.07244,0 -1.91911,-0.28222 -0.76199,-0.254 -0.76199,-0.70555 0,-1.21356 0.95955,-8.57955 0.64911,-4.88244 1.32644,-9.70844 0.19756,-0.59266 2.00378,-0.59266 1.778,0 2.20133,0.47977 0.11289,0.16934 0.11289,0.81845 0,2.59644 -1.46755,12.78465 -0.508,3.69711 -0.64911,4.99533 -0.14112,0.79022 -1.80623,0.79022 z"
         id="path6783" />
    </g>
  </g>
</svg>
