<?xml version="1.0" standalone="no"?>
<svg viewBox="0 0 200 200" xmlns="http://www.w3.org/2000/svg">
  <path fill="#096fc0" d="M30.1,-49.2C36.9,-42.5,38.9,-30.6,39.9,-20.5C40.9,-10.5,41,-2.3,38.5,4.6C36.1,11.5,31.1,17.1,25.6,20.4C20,23.6,13.7,24.6,6.5,30.4C-0.7,36.3,-8.8,47.1,-19.7,51.1C-30.5,55.2,-43.9,52.5,-49.7,44.1C-55.5,35.6,-53.5,21.5,-54.6,8.4C-55.8,-4.8,-60,-17.1,-53.8,-22C-47.6,-27,-31,-24.7,-20.3,-29.6C-9.6,-34.5,-4.8,-46.7,3.4,-52.1C11.6,-57.4,23.3,-55.9,30.1,-49.2Z" transform="translate(100 100)" />
</svg>
