<?xml version="1.0" standalone="no"?>
<svg viewBox="0 0 200 200" xmlns="http://www.w3.org/2000/svg">
  <path fill="#096fc0" d="M38.1,-61C50.5,-51.2,62.6,-42.7,70,-30.8C77.3,-18.8,79.7,-3.5,79.6,12.8C79.4,29.2,76.6,46.5,66.4,56.5C56.2,66.4,38.6,69,22.5,71.3C6.4,73.6,-8.2,75.7,-20.7,71.6C-33.3,67.5,-43.7,57.2,-56,46.5C-68.3,35.9,-82.5,24.9,-83.6,12.5C-84.6,0.1,-72.5,-13.7,-62.5,-25.6C-52.5,-37.5,-44.8,-47.5,-34.7,-58.4C-24.6,-69.3,-12.3,-81.1,0.2,-81.5C12.8,-81.8,25.6,-70.8,38.1,-61Z" transform="translate(100 100)" />
</svg>
